<?xml version="1.0" encoding="UTF-8"?>
<svg width="192px" height="50px" viewBox="0 0 192 50" version="1.1" xmlns="http://www.w3.org/2000/svg" xmlns:xlink="http://www.w3.org/1999/xlink">
    <!-- Generator: Sketch 61.1 (89650) - https://sketch.com -->
    <title>White Text</title>
    <desc>Created with Sketch.</desc>
    <g id="White-Text" stroke="none" stroke-width="1" fill="none" fill-rule="evenodd">
        <g id="Group-Copy" transform="translate(1.000000, 3.000000)">
            <path d="M69.7733951,9.85578261 L65.8514198,9.85578261 L65.8514198,20.1635217 C64.5218107,18.0473478 62.3391564,16.8526957 59.4066667,16.8526957 C54.2915226,16.8526957 50.7792593,20.5732174 50.7792593,26.0342609 C50.7792593,31.5637826 54.2575103,35.352 59.4746914,35.352 C62.3735597,35.352 64.556214,34.1917826 65.8514198,32.0756087 L65.8514198,35.1813913 L69.7733951,35.1813913 L69.7733951,9.85578261 Z M60.2933333,32.0756087 C56.985535,32.0756087 54.7352469,29.6182174 54.7008436,26.1708261 C54.7352469,22.6893913 57.0195473,20.1975652 60.2933333,20.1975652 C63.5671193,20.1975652 65.8514198,22.6549565 65.8514198,26.1708261 C65.8514198,29.6182174 63.5671193,32.0756087 60.2933333,32.0756087 Z M86.6243621,35.1813913 L90.4833951,35.1813913 L90.4493827,23.2696957 C90.4153704,19.2764348 87.7839095,16.8871304 83.1066255,16.8871304 C79.6623868,16.8871304 77.8206379,17.672087 75.2974691,19.173913 L76.9003498,21.9044348 C78.7073045,20.6753478 80.5146502,20.0613913 82.2539712,20.0613913 C85.1239095,20.0613913 86.5903498,21.4266522 86.5903498,23.7134348 L86.5903498,24.2593043 L81.0944239,24.2593043 C76.7295062,24.2937391 74.2403498,26.4095217 74.2403498,29.7207391 C74.2403498,32.9290435 76.6954938,35.352 80.6170782,35.352 C83.2430658,35.352 85.3287654,34.5670435 86.6243621,32.963087 L86.6243621,35.1813913 Z M81.4357202,32.2462174 C79.2530658,32.2462174 77.9230658,31.1881304 77.9230658,29.5497391 C77.9230658,27.8092174 79.1166255,27.1263913 81.6741975,27.1263913 L86.5903498,27.1263913 L86.5903498,28.7988261 C86.3858848,30.7784348 84.2376337,32.2462174 81.4357202,32.2462174 Z M104.999239,31.0175217 C103.942119,31.5293478 103.089465,31.8024783 102.271214,31.8024783 C101.043251,31.8024783 100.327428,31.2221739 100.327428,29.345087 L100.327428,20.6416957 L105.681049,20.6416957 L105.681049,17.7061304 L100.327428,17.7061304 L100.327428,12.7228696 L96.439856,12.7228696 L96.439856,17.7061304 L93.882284,17.7061304 L93.882284,20.6416957 L96.439856,20.6416957 L96.439856,30.0619565 C96.439856,33.782087 98.792572,35.352 101.520988,35.352 C103.055453,35.352 104.555905,34.8742174 105.987942,34.0211739 L104.999239,31.0175217 Z M120.486584,35.1813913 L124.345617,35.1813913 L124.311605,23.2696957 C124.277593,19.2764348 121.645741,16.8871304 116.968848,16.8871304 C113.524218,16.8871304 111.68286,17.672087 109.1593,19.173913 L110.762181,21.9044348 C112.569527,20.6753478 114.376872,20.0613913 116.115802,20.0613913 C118.986132,20.0613913 120.452572,21.4266522 120.452572,23.7134348 L120.452572,24.2593043 L114.956646,24.2593043 C110.591728,24.2937391 108.102572,26.4095217 108.102572,29.7207391 C108.102572,32.9290435 110.557716,35.352 114.4793,35.352 C117.104897,35.352 119.190597,34.5670435 120.486584,32.963087 L120.486584,35.1813913 Z M115.297551,32.2462174 C113.115288,32.2462174 111.785288,31.1881304 111.785288,29.5497391 C111.785288,27.8092174 112.978848,27.1263913 115.536029,27.1263913 L120.452572,27.1263913 L120.452572,28.7988261 C120.247716,30.7784348 118.099465,32.2462174 115.297551,32.2462174 Z M135.00751,16.8526957 C131.52965,16.8526957 128.323889,18.4226087 128.323889,22.109087 C128.290267,28.6622609 137.838354,26.5801304 137.838354,30.3006522 C137.838354,31.665913 136.542366,32.2462174 134.871461,32.2462174 C132.893663,32.2462174 130.370103,31.3931739 128.801235,29.9934783 L127.403601,32.792087 C129.210556,34.4308696 132.041008,35.3183478 134.700617,35.3183478 C138.349712,35.3183478 141.6576,33.645913 141.6576,29.925 C141.691523,23.3377826 132.041008,25.1467826 132.041008,21.801913 C132.041008,20.5047391 133.166543,19.992913 134.700617,19.992913 C136.303498,19.992913 138.3157,20.6072609 139.918189,21.5972609 L141.350617,18.6961304 C139.713333,17.5351304 137.292593,16.8526957 135.00751,16.8526957 Z M147.556893,9.44647826 C146.260905,9.44647826 145.272202,10.436087 145.272202,11.8353913 C145.272202,13.2006522 146.260905,14.1902609 147.556893,14.1902609 C148.852881,14.1902609 149.841193,13.2006522 149.841193,11.8353913 C149.841193,10.436087 148.852881,9.44647826 147.556893,9.44647826 Z M145.613107,35.1813913 L149.500288,35.1813913 L149.500288,17.0233043 L145.613107,17.0233043 L145.613107,35.1813913 Z M171.76821,17.0236957 L167.846626,17.0236957 L167.846626,25.9661739 C167.846626,29.1400435 166.005267,31.5637826 162.867531,31.6318696 C160.241934,31.6318696 158.639053,29.9594348 158.639053,27.228913 L158.639053,17.0236957 L154.71786,17.0236957 L154.71786,28.3210435 C154.71786,32.655913 157.207016,35.3183478 161.367469,35.3183478 C164.334362,35.283913 166.618663,34.1573478 167.846626,31.6318696 L167.846626,35.1813913 L171.76821,35.1813913 L171.76821,17.0236957 Z M182.986811,16.8526957 C179.508951,16.8526957 176.303189,18.4226087 176.303189,22.109087 C176.269177,28.6622609 185.817654,26.5801304 185.817654,30.3006522 C185.817654,31.665913 184.521667,32.2462174 182.850761,32.2462174 C180.872963,32.2462174 178.349403,31.3931739 176.780535,29.9934783 L175.38251,32.792087 C177.189856,34.4308696 180.020309,35.3183478 182.679918,35.3183478 C186.328621,35.3183478 189.636898,33.645913 189.636898,29.925 C189.670432,23.3377826 180.020309,25.1467826 180.020309,21.801913 C180.020309,20.5047391 181.145453,19.992913 182.679918,19.992913 C184.282798,19.992913 186.295,20.6072609 187.89749,21.5972609 L189.329918,18.6961304 C187.692634,17.5351304 185.271893,16.8526957 182.986811,16.8526957 L182.986811,16.8526957 Z" id="Fill-1" fill="#FAEFEB"></path>
            <polyline id="Fill-2" fill="#55B5DB" points="4.845 8.39973913 9.69039095 11.1995217 9.69078189 5.59956522 9.69039095 0 4.845 2.79978261 0 5.59995652 4.845 8.39973913"></polyline>
            <polyline id="Fill-3" fill="#44AAD4" points="9.69078189 5.59956522 9.69039095 11.1995217 14.5353909 8.39934783 19.3803909 5.59956522 9.69039095 0 9.69078189 5.59956522"></polyline>
            <polyline id="Fill-4" fill="#329BCA" points="14.5353909 8.39934783 9.69039095 11.1995217 19.3803909 16.7994783 19.3807819 11.1995217 19.3803909 5.59956522 14.5353909 8.39934783"></polyline>
            <polyline id="Fill-5" fill="#2487B8" points="19.3807819 11.1995217 19.3803909 16.7994783 24.2253909 13.998913 29.0703909 11.1995217 19.3803909 5.59956522 19.3807819 11.1995217"></polyline>
            <polyline id="Fill-6" fill="#1F7AAB" points="24.2253909 13.998913 19.3803909 16.7994783 29.0703909 22.3990435 29.0707819 16.799087 29.0703909 11.1995217 24.2253909 13.998913"></polyline>
            <polyline id="Fill-7" fill="#22688E" points="29.0707819 16.799087 29.0703909 22.3990435 33.915 19.5984783 38.7603909 16.799087 29.0703909 11.1995217 29.0707819 16.799087"></polyline>
            <polyline id="Fill-8" fill="#55B5DB" points="33.915 19.5984783 29.07 22.3990435 38.7603909 27.9986087 38.7607819 22.3986522 38.7603909 16.799087 33.915 19.5984783"></polyline>
            <polyline id="Fill-9" fill="#44AAD4" points="33.915 25.1984348 29.07 22.3990435 29.07 27.9986087 29.0703909 33.5985652 38.7603909 27.9986087 33.915 25.1984348"></polyline>
            <polyline id="Fill-10" fill="#329BCA" points="29.07 27.9986087 29.07 22.3990435 19.38 27.9986087 29.0703909 33.5985652 29.07 27.9986087"></polyline>
            <polyline id="Fill-11" fill="#2487B8" points="29.0703909 33.5985652 19.38 27.9986087 19.38 33.5985652 19.3803909 39.1985217 29.0703909 33.5985652"></polyline>
            <polyline id="Fill-12" fill="#1F7AAB" points="19.38 33.5985652 19.38 27.9986087 9.69 33.5985652 19.3803909 39.1985217 19.38 33.5985652"></polyline>
            <polyline id="Fill-13" fill="#22688E" points="19.3803909 39.1985217 9.69 33.5985652 9.69 39.1981304 9.69039095 44.798087 19.3803909 39.1985217"></polyline>
            <polyline id="Fill-14" fill="#1F7AAB" points="9.69 39.1981304 9.69039095 33.5985652 4.845 36.3983478 5.55568394e-15 39.1985217 4.845 41.9983043 9.69039095 44.798087 9.69 39.1981304"></polyline>
            <polyline id="Fill-15" fill="#2487B8" points="4.845 36.3983478 9.69039095 33.5985652 4.84539095 30.7983913 5.55568394e-15 27.999 5.55568394e-15 39.1985217 4.845 36.3983478"></polyline>
            <polyline id="Fill-16" fill="#329BCA" points="4.84539095 30.7983913 9.69039095 33.5985652 9.69039095 22.3994348 4.845 25.1988261 5.55568394e-15 27.999 4.84539095 30.7983913"></polyline>
            <polyline id="Fill-17" fill="#44AAD4" points="5.55568394e-15 27.999 4.845 25.1988261 9.69039095 22.3994348 4.84539095 19.5992609 5.55568394e-15 16.7998696 5.55568394e-15 27.999"></polyline>
            <polyline id="Fill-18" fill="#55B5DB" points="4.84539095 19.5992609 9.69039095 22.3994348 9.69039095 11.199913 4.845 13.9996957 5.55568394e-15 16.7998696 4.84539095 19.5992609"></polyline>
        </g>
    </g>
</svg>